<?xml version="1.0" encoding="utf-8"?><svg version="1.1" id="Layer_1" xmlns="http://www.w3.org/2000/svg" xmlns:xlink="http://www.w3.org/1999/xlink" x="0px" y="0px" viewBox="0 0 1589 1354" style="enable-background:new 0 0 1589 1354;" xml:space="preserve"><style type="text/css">.st0{fill:#333333;}</style><title>Artboard 1</title><path class="st0" d="M719.5,178.5c-2,2.3-6.1,20.2-10.6,47.6c-4.1,24.1-8.4,45.9-9.4,48.2c-1.2,3.3-4.3,4.7-11.4,5.9c-5.3,0.8-18.4,4.1-29.2,7.4l-19.6,5.9l-8.2-9.4c-4.5-5.3-18.8-22-31.7-37.4c-15.3-18.2-25.1-28-28.2-28.4s-18.2,7.1-42.9,21.2c-42.9,24.5-45.3,26.4-45.3,32.5c0,2.3,7.1,23.9,16.1,48l16.1,43.9l-22.7,22.9l-22.5,22.9l-7.4-2.9c-29.2-11.4-81.5-29.6-84.9-29.6c-6.1,0-8,2.3-32.5,45.3c-14.1,24.7-21.6,39.8-21.2,42.9s10.2,12.9,28.4,28.2c15.3,12.9,32,27.1,37.4,31.6l9.4,8.2l-5.9,19.6c-3.3,10.8-6.5,23.9-7.4,29.2c-1.2,7.2-2.6,10.2-5.9,11.4c-2.3,1-23.5,5.1-47.2,9.2s-44.9,8.8-47.6,10.4c-4.5,2.8-4.5,3.4-4.5,51.6c0,43.7,0.4,48.8,3.7,51.7c2,2,20.2,6.1,46.4,10.6c23.7,4.1,44.9,8,47.4,8.4c3.3,0.8,5.1,3.5,6.7,9.8c1,4.7,4.5,17.8,7.8,29c3.1,11.2,5.5,21.2,5.5,22c0,1-16.5,15.7-36.8,32.7c-24.5,20.8-37,32.7-37.4,35.7s7.1,18.2,21.2,42.9c24.7,43.3,26.3,45.3,32.5,45.3c2.5,0,24.1-7.3,48.2-16.1l43.7-16.1l22.9,22.7l22.9,22.5l-2.9,7.3c-11.4,29.2-29.6,81.5-29.6,84.9c0,6.1,2.3,7.8,45.3,32.5c24.7,14.1,39.8,21.6,42.9,21.2s14.5-12.3,34.3-35.7c16.3-19.4,30.6-35.9,31.7-37.2c1.4-1.2,8.8,0,21.6,3.9c10.8,3.1,23.9,6.3,29.2,7.2c7.2,1.2,10.2,2.7,11.4,5.9c1,2.3,5.3,24.1,9.4,48.2c4.5,27,8.8,45.3,10.6,47.4c2.9,3.3,8,3.7,51.7,3.7c48.2,0,48.8,0,51.7-4.7c1.6-2.4,6.3-23.7,10.4-47.4s8.2-44.9,9.2-47.2c1.2-3.3,4.3-4.7,11.4-5.9c5.3-0.8,18.4-4.1,29.2-7.3l19.6-5.9l8.2,9.4c4.5,5.3,18.8,22,31.7,37.4c15.3,18,25.1,28,28.2,28.4c2.9,0.4,18.4-7.2,42.9-21.2c43.3-24.9,45.3-26.3,45.3-32.5c0-2.4-7.3-24.1-16.1-48.2l-16.1-43.7l22.5-22.9l22.7-22.9l7.3,2.9c29.2,11.4,81.5,29.6,84.9,29.6c6.1,0,7.8-2.3,32.5-45.3c14.1-24.5,21.6-39.8,21.2-42.9s-13.1-15.1-37.4-35.7c-20.2-17-36.6-32.3-36.3-33.7c0-1.4,3.5-15.1,7.3-30.2c5.3-20.4,8.2-27.8,11-29c2-0.8,23.1-4.7,46.6-8.8c23.7-4.1,44.9-8.8,47.6-10.4c4.5-2.8,4.5-3.4,4.5-51.8s0-49-4.5-51.9c-2.7-1.6-23.9-6.3-47.6-10.4c-23.5-4.1-44.5-8-46.6-8.8c-2.9-1.2-5.7-8.4-11-29c-3.9-15.1-7.2-28.8-7.3-30.2s16.1-16.5,36.3-33.7c24.5-20.8,37-32.7,37.4-35.7s-7.2-18.2-21.2-42.9c-24.7-43.1-26.3-45.3-32.5-45.3c-3.5,0-55.7,18.2-84.9,29.6l-7.3,2.9l-22.5-22.9l-22.7-22.9l16.1-43.9c8.8-24.1,16.1-45.7,16.1-48.2c0-5.9-2.3-7.5-45.3-32.3c-24.7-14.1-39.8-21.6-42.9-21.2s-12.9,10.2-28.2,28.4c-12.9,15.4-27.2,32.1-31.7,37.4l-8.2,9.4l-19.6-5.9c-10.8-3.3-23.9-6.5-29.2-7.4c-7.2-1.2-10.2-2.6-11.6-5.9c-0.8-2.3-5.1-23.7-9-47.2c-4.1-23.7-8.8-44.9-10.4-47.6c-2.8-4.5-3.5-4.5-51.6-4.5C727.5,175,722.4,175.4,719.5,178.5z M806.9,437.4c49.6,8,90.7,29.2,126.6,65.1c47,47,71.1,108.8,67.6,173.3C999.7,704,995,725,984.6,751c-11.6,28.7-29,54.8-51,76.6c-59.8,60-146,82.3-226.8,59c-35.7-10.5-67.6-29.2-96.2-56.6c-79.8-76.8-92.9-198.9-31.2-293.6c11.2-17.2,45.9-51.9,63.1-63.1C692.2,440.8,750.4,428.2,806.9,437.4z"/><path class="st0" d="M632.8,664.3c0-103.1,65.2-162.9,148.5-162.9c39.4,0,71.7,18.8,92.8,39.5l-38.7,43.5c-14.8-13.7-31.6-22.3-54-22.3c-44.2,0-76.4,37.5-76.4,99.8c0,63.9,32.2,101,79.1,101c22.4,0,40.9-11,56-27.5l38.7,42.6c-25.4,30-60.2,45.7-102,45.7C699.6,823.7,632.8,769.1,632.8,664.3z"/></svg>